{"title":"The Lion King 2, Simba's Pride DVDrip Dutch Klam","uid":6741839,"size":1316528414,"categoryP":"video","categoryS":"movies","magnet":"?xt=urn:btih:f784556d32aa4a6c7194c308bb2985503c421609&amp;dn=The+Lion+King+2%2C+Simba%5C%27s+Pride+DVDrip+Dutch+Klam&amp;tr=udp%3A%2F%2Ftracker.openbittorrent.com%3A80&amp;tr=udp%3A%2F%2Fopen.demonii.com%3A1337&amp;tr=udp%3A%2F%2Ftracker.coppersurfer.tk%3A6969&amp;tr=udp%3A%2F%2Fexodus.desync.com%3A6969","seeders":1,"leechers":0,"uploader":"Klambake","files":-1,"time":1318535345,"description":"Nederlands gesproken,\nSimba's dochter Kiara is nu groot en gaat voor het eerst zelf op onderzoek uit in het koninkrijk. Ze komt per ongeluk in het verboden land terecht en ontmoet Kovu, een verbannen leeuwtje. Kovu is geadopteerd door Scar en Zira. Kovu en Kiara worden verliefd. Maar Kiara mag niet met Kovu omgaan, omdat Kovu bij de troep van Scar hoort. En Kovu mag niet meer met Kiara omgaan, omdat Simba Scar heeft vermoord. Maar zal hun liefde sterk genoeg zijn om toch bij elkaar te blijven?\n\nDutch spoken,\nSimba's daughter is the key to a resolution of a bitter feud between Simba's pride and the outcast pride led by the mate of Scar. \n\n------------------ Dutch Friends ------------------\nYou can find my Friends at: http://www.Film-Test.nl \n------ They got my dutch subs ----- and more ------\n\nGeneral:\n\nComplete name                    : The Lion King 2\\The Lion King 2.avi\nFormat                           : AVI\nFormat/Info                      : Audio Video Interleave\nFile size                        : 1.23 GiB\nDuration                         : 1h 17mn\nOverall bit rate                 : 2 264 Kbps\n\nVideo:\n\nFormat                           : MPEG-4 Visual\nFormat profile                   : Simple@L3\nFormat settings, BVOP            : No\nFormat settings, QPel            : No\nFormat settings, GMC             : No warppoints\nFormat settings, Matrix          : Default (H.263)\nCodec ID                         : XVID\nCodec ID/Hint                    : XviD\nDuration                         : 1h 17mn\nBit rate                         : 1 869 Kbps\nWidth                            : 704 pixels\nHeight                           : 424 pixels\nDisplay aspect ratio             : 1.660\nFrame rate                       : 25.000 fps\nColor space                      : YUV\nChroma subsampling               : 4:2:0\nBit depth                        : 8 bits\nScan type                        : Progressive\nCompression mode                 : Lossy\nBits/(Pixel*Frame)               : 0.250\nStream size                      : 1.01 GiB (83%)\nWriting library                  : XviD 1.1.2 (UTC 2006-11-01)\n\nAudio:\n\nFormat                           : AC-3\nFormat/Info                      : Audio Coding 3\nMode extension                   : CM (complete main)\nCodec ID                         : 2000\nDuration                         : 1h 17mn\nBit rate mode                    : Constant\nBit rate                         : 384 Kbps\nChannel(s)                       : 6 channels\nChannel positions                : Front: L C R, Side: L R, LFE\nSampling rate                    : 48.0 KHz\nBit depth                        : 16 bits\nCompression mode                 : Lossy\nStream size                      : 213 MiB (17%)\nAlignment                        : Aligned on interleaves\nInterleave, duration             : 32 ms (0.80 video frame)\n\n","torrent":{"xt":"urn:btih:f784556d32aa4a6c7194c308bb2985503c421609","amp;dn":"The+Lion+King+2%2C+Simba%5C%27s+Pride+DVDrip+Dutch+Klam","amp;tr":["udp%3A%2F%2Ftracker.openbittorrent.com%3A80","udp%3A%2F%2Fopen.demonii.com%3A1337","udp%3A%2F%2Ftracker.coppersurfer.tk%3A6969","udp%3A%2F%2Fexodus.desync.com%3A6969"],"infoHash":"f784556d32aa4a6c7194c308bb2985503c421609","infoHashBuffer":{"type":"Buffer","data":[247,132,85,109,50,170,74,108,113,148,195,8,187,41,133,80,60,66,22,9]},"announce":[],"urlList":[]}}